<mxfile host="app.diagrams.net" modified="2023-09-21T05:59:00.429Z" agent="Mozilla/5.0 (Windows NT 10.0; Win64; x64) AppleWebKit/537.36 (KHTML, like Gecko) Chrome/117.0.0.0 Safari/537.36 Edg/117.0.2045.31" version="21.8.0" etag="ww5ObvDlcmCDVQBQud-m" type="github">
  <diagram name="페이지-1" id="1p51DnA_9Si2TZO5w52H">
    <mxGraphModel>
      <root>
        <mxCell id="0" />
        <mxCell id="1" parent="0" />
      </root>
    </mxGraphModel>
  </diagram>
</mxfile>
